{
  "accessors": [
    {
      "bufferView": 0,
      "componentType": 5125,
      "count": 297408,
      "type": "SCALAR"
    },
    {
      "bufferView": 1,
      "componentType": 5126,
      "count": 50906,
      "max": [
        0.615442991256714,
        0.368952751159668,
        1.00000011920929
      ],
      "min": [
        -0.615443050861359,
        -0.368952751159668,
        -1.0
      ],
      "type": "VEC3"
    },
    {
      "bufferView": 2,
      "componentType": 5126,
      "count": 50906,
      "type": "VEC3"
    },
    {
      "bufferView": 3,
      "componentType": 5126,
      "count": 50906,
      "type": "VEC2"
    }
  ],
  "asset": {
    "generator": "Substance Painter 2019.3.1",
    "version": "2.0"
  },
  "bufferViews": [
    {
      "buffer": 0,
      "byteLength": 1189632,
      "target": 34963
    },
    {
      "buffer": 0,
      "byteLength": 610872,
      "byteOffset": 1189632,
      "target": 34962
    },
    {
      "buffer": 0,
      "byteLength": 610872,
      "byteOffset": 1800504,
      "target": 34962
    },
    {
      "buffer": 0,
      "byteLength": 407248,
      "byteOffset": 2411376,
      "target": 34962
    }
  ],
  "buffers": [
    {
      "byteLength": 2818624,
      "uri": "body2.bin"
    }
  ],
  "images": [
    {
      "uri": "_11542_femaletorso_v2_FINALdefault_baseColor.png"
    },
    {
      "uri": "_11542_femaletorso_v2_FINALdefault_occlusionRoughnessMetallic.png"
    },
    {
      "uri": "_11542_femaletorso_v2_FINALdefault_normal.png"
    }
  ],
  "materials": [
    {
      "alphaMode": "OPAQUE",
      "name": "_11542_femaletorso_v2_FINALdefault",
      "normalTexture": {
        "index": 2
      },
      "occlusionTexture": {
        "index": 1
      },
      "pbrMetallicRoughness": {
        "baseColorTexture": {
          "index": 0
        },
        "metallicRoughnessTexture": {
          "index": 1
        }
      }
    }
  ],
  "meshes": [
    {
      "name": "female_torso",
      "primitives": [
        {
          "attributes": {
            "NORMAL": 2,
            "POSITION": 1,
            "TEXCOORD_0": 3
          },
          "indices": 0,
          "material": 0,
          "mode": 4
        }
      ]
    }
  ],
  "nodes": [
    {
      "children": [
        1
      ],
      "name": "11542_femaletorso_v2.obj",
      "scale": [
        49.0635986328125,
        49.0635986328125,
        49.0635986328125
      ],
      "translation": [
        2.99125099182129,
        5.55735015869141,
        0.00359725952148438
      ]
    },
    {
      "children": [
        2
      ],
      "name": "g female_torso"
    },
    {
      "mesh": 0,
      "name": "female_torso"
    }
  ],
  "samplers": [
    {
      "magFilter": 9729,
      "minFilter": 9985,
      "wrapS": 10497,
      "wrapT": 10497
    }
  ],
  "scene": 0,
  "scenes": [
    {
      "name": "Scene",
      "nodes": [
        0
      ]
    }
  ],
  "textures": [
    {
      "sampler": 0,
      "source": 0
    },
    {
      "sampler": 0,
      "source": 1
    },
    {
      "sampler": 0,
      "source": 2
    }
  ]
}